<svg xmlns="http://www.w3.org/2000/svg" viewBox="0 0 420 280">
  <defs>
    <linearGradient id="bg" x1="0" y1="0" x2="1" y2="1">
      <stop offset="0%" stop-color="#fff6de"/>
      <stop offset="100%" stop-color="#def7ff"/>
    </linearGradient>
    <linearGradient id="dress" x1="0" y1="0" x2="0" y2="1">
      <stop offset="0%" stop-color="#ff6ea8"/>
      <stop offset="100%" stop-color="#ff8ec1"/>
    </linearGradient>
    <linearGradient id="skin" x1="0" y1="0" x2="0" y2="1">
      <stop offset="0%" stop-color="#ffd7bf"/>
      <stop offset="100%" stop-color="#ffc3a0"/>
    </linearGradient>
  </defs>
  <rect width="420" height="280" rx="40" fill="url(#bg)"/>
  <circle cx="64" cy="52" r="22" fill="#ffffff" opacity="0.65"/>
  <circle cx="366" cy="64" r="18" fill="#ffd4ea" opacity="0.7"/>
  <circle cx="344" cy="224" r="26" fill="#bdf2df" opacity="0.75"/>
  <g transform="translate(36 24)">
    <ellipse cx="110" cy="104" rx="54" ry="60" fill="url(#skin)"/>
    <path d="M53 109c0-45 26-70 57-70 31 0 56 24 58 69-20-18-40-26-58-26-18 0-37 6-57 27z" fill="#40285f"/>
    <path d="M61 100c8-28 30-48 50-48 14 0 27 6 36 16-12-4-24-6-35-6-20 0-37 13-51 38z" fill="#573479" opacity="0.58"/>
    <circle cx="90" cy="106" r="5.5" fill="#2f2148"/>
    <circle cx="129" cy="106" r="5.5" fill="#2f2148"/>
    <path d="M93 132q16 13 33 0" fill="none" stroke="#8f5171" stroke-width="5" stroke-linecap="round"/>
    <circle cx="74" cy="118" r="7" fill="#ffb3c9" opacity="0.65"/>
    <circle cx="145" cy="118" r="7" fill="#ffb3c9" opacity="0.65"/>
    <path d="M69 185c12-28 27-40 41-40s29 12 41 40c-11 15-28 24-41 24s-30-9-41-24z" fill="url(#dress)"/>
    <circle cx="110" cy="168" r="6.5" fill="#fff2a8"/>
    <circle cx="110" cy="185" r="6.5" fill="#fff2a8"/>
    <path d="M154 142c18 6 32 18 41 34" fill="none" stroke="#ff96c6" stroke-width="7" stroke-linecap="round"/>
    <circle cx="200" cy="181" r="10" fill="#ffd65c"/>
  </g>
  <g transform="translate(225 52)">
    <rect x="0" y="0" width="152" height="152" rx="28" fill="#ffffff" opacity="0.7"/>
    <text x="76" y="44" text-anchor="middle" font-family="Arial, sans-serif" font-weight="700" font-size="24" fill="#6d5cac">Hi Sophia!</text>
    <text x="76" y="80" text-anchor="middle" font-family="Arial, sans-serif" font-weight="700" font-size="18" fill="#6d5cac">Let’s learn</text>
    <text x="76" y="106" text-anchor="middle" font-family="Arial, sans-serif" font-weight="700" font-size="18" fill="#6d5cac">some English</text>
    <text x="76" y="132" text-anchor="middle" font-family="Arial, sans-serif" font-weight="700" font-size="18" fill="#6d5cac">today! ✨</text>
  </g>
</svg>
