<svg xmlns="http://www.w3.org/2000/svg" viewBox="0 0 256 256">
  <defs>
    <linearGradient id="bg" x1="0" y1="0" x2="1" y2="1">
      <stop offset="0%" stop-color="#ffe9f6"/>
      <stop offset="100%" stop-color="#e1f8ff"/>
    </linearGradient>
    <linearGradient id="dress" x1="0" y1="0" x2="0" y2="1">
      <stop offset="0%" stop-color="#ff6ea8"/>
      <stop offset="100%" stop-color="#ff8dc0"/>
    </linearGradient>
    <linearGradient id="skin" x1="0" y1="0" x2="0" y2="1">
      <stop offset="0%" stop-color="#ffd7bf"/>
      <stop offset="100%" stop-color="#ffc4a0"/>
    </linearGradient>
  </defs>
  <rect width="256" height="256" rx="128" fill="url(#bg)"/>
  <circle cx="50" cy="58" r="24" fill="#ffffff" opacity="0.55"/>
  <circle cx="206" cy="196" r="30" fill="#bff2de" opacity="0.65"/>
  <ellipse cx="128" cy="108" rx="58" ry="64" fill="url(#skin)"/>
  <path d="M68 111c0-46 28-73 60-73 33 0 61 23 63 72-20-20-44-28-63-28-18 0-40 6-60 29z" fill="#40285f"/>
  <path d="M77 101c6-28 30-48 53-48 16 0 30 6 40 18-13-5-27-7-39-7-20 0-39 12-54 37z" fill="#553277" opacity="0.58"/>
  <circle cx="106" cy="111" r="6" fill="#2f2148"/>
  <circle cx="150" cy="111" r="6" fill="#2f2148"/>
  <path d="M110 138q18 14 36 0" fill="none" stroke="#8f5171" stroke-width="5" stroke-linecap="round"/>
  <circle cx="88" cy="124" r="8" fill="#ffb3c9" opacity="0.65"/>
  <circle cx="168" cy="124" r="8" fill="#ffb3c9" opacity="0.65"/>
  <path d="M83 182c12-28 31-42 45-42s33 14 45 42c-12 16-31 28-45 28s-33-12-45-28z" fill="url(#dress)"/>
  <circle cx="128" cy="164" r="7" fill="#fff2a8"/>
  <circle cx="128" cy="182" r="7" fill="#fff2a8"/>
</svg>
