<svg xmlns="http://www.w3.org/2000/svg" viewBox="0 0 512 512" role="img" aria-label="Ledgerly">
  <defs>
    <linearGradient id="g" x1="0" y1="0" x2="1" y2="1">
      <stop offset="0%" stop-color="#8fa89d"/>
      <stop offset="100%" stop-color="#d8c6a8"/>
    </linearGradient>
  </defs>
  <rect width="512" height="512" rx="112" fill="#f4ede1"/>
  <rect x="88" y="88" width="336" height="336" rx="84" fill="url(#g)" opacity="0.98"/>
  <path d="M182 176h148c14 0 24 10 24 24s-10 24-24 24H182c-14 0-24-10-24-24s10-24 24-24Zm0 88h96c14 0 24 10 24 24s-10 24-24 24h-96c-14 0-24-10-24-24s10-24 24-24Zm0 88h148c14 0 24 10 24 24s-10 24-24 24H182c-14 0-24-10-24-24s10-24 24-24Z" fill="#fffaf3"/>
</svg>
